<svg version="1.2" xmlns="http://www.w3.org/2000/svg" viewBox="0 0 1547 542" width="1547" height="542">
	<title>DLF_logo-svg</title>
	<style>
		.s0 { fill: #1b1b1b } 
	</style>
	<g id="#1b1b1bff">
		<path id="Layer" fill-rule="evenodd" class="s0" d="m0.5 542c21-125.4 41.5-250.8 62.8-376.1 40.4 0.2 80.7 0 121.1 0.1 34.1 0.2 68.8-1.6 102.2 7.1 27.3 6.7 53.7 20.8 70.6 43.9 18.8 25.4 24.5 58 24.1 89.1-0.6 42.4-11.8 84.4-29.4 122.9-13.3 27.6-31.9 53.1-56.2 72-28.5 22.4-63.9 34.9-99.8 38.9-21.2 2.7-42.7 2-64 2.1q-65.7 0-131.4 0zm163.1-288.2c-11.1 66.8-22.2 133.6-33.4 200.4 20.9-0.4 42.5 1.8 62.7-4.9 22.4-6.6 40.9-23.3 51.7-43.8 14.8-28 19.9-60.1 20.5-91.5-0.4-17.2-3.3-38.1-19.5-47.9-24.5-15.1-54.5-11.9-82-12.3zm273.8-87.8q57.5 0 115.1 0-24.1 144.1-48 288.2c52.7-0.1 105.4 0 158.1 0-4.9 29.2-9.7 58.5-14.7 87.8-91.1-0.1-182.1 0-273.1 0 20.8-125.4 41.7-250.7 62.6-376zm304.8 0q136.7 0 273.3 0c-4.8 29.2-9.8 58.4-14.5 87.6-52.8 0.4-105.5 0.1-158.2 0.2-3.8 22.8-7.6 45.5-11.4 68.3 41.9 0 83.9 0.2 125.9-0.1-4.6 29.3-9.8 58.5-14.5 87.8-42 0.1-84 0-126 0.1-7.3 44-14.7 88-22 132.1-38.4-0.1-76.8 0-115.1-0.1 20.8-125.3 41.8-250.6 62.5-375.9z"/>
		<path id="Layer" class="s0" d="m1238.9 0.4c11.4 17.9 21.1 37 31.9 55.3 22.3 39.6 44.8 79 67.1 118.6-65.8 0.1-131.6 0-197.5 0 32.7-58 65.7-115.9 98.5-173.9zm-90.8 187.1c60.7 0 121.4 0 182.1 0-30.3 53.6-60.7 107-91 160.6-30.5-53.4-60.8-107-91.1-160.6zm-109.8 167c31.7-55.6 63.1-111.4 94.8-167.1 31.7 55.7 63.2 111.5 94.9 167.2-63.2 0-126.5 0.2-189.7-0.1zm211.8 0.1c31.6-55.7 63.1-111.5 94.8-167.2q47.5 83.6 94.9 167.3c-63.3-0.1-126.5 0.1-189.7-0.1zm-219.2 13.1c33.1 57.9 65.9 116.1 98.8 174.2q-98.8 0.1-197.5 0c32.8-58.1 65.8-116.1 98.7-174.2zm15.1 0.1c60.7 0.1 121.4 0 182.2 0.1-29.8 52.7-59.9 105.3-89.6 158.1-0.9 3.4-3.3 0.1-3.8-1.4-29.5-52.3-59.3-104.5-88.8-156.8zm204.2 0.1c60.7-0.1 121.4 0 182.1 0q-45.5 80.3-91 160.6c-30.4-53.5-60.8-107.1-91.1-160.6zm196.9 0.1c16.3 26.6 30.9 54.3 46.6 81.3q26.2 46.3 52.5 92.6c-65.9 0-131.8 0.1-197.6 0 32.8-58 65.8-115.9 98.5-173.9zm-207.9 6.6c32.1 55.5 63.2 111.5 94.8 167.3q-94.7 0-189.4 0c31.5-55.8 63.3-111.4 94.6-167.3z"/>
	</g>
</svg>